<svg width="643" height="183" viewBox="0 0 643 183" version="1.1" xmlns="http://www.w3.org/2000/svg" xmlns:xlink="http://www.w3.org/1999/xlink">
<title>caloroe</title>
<desc>Created using Figma</desc>
<g id="Canvas" transform="translate(6 825)">
<g id="caloroe">
<use xlink:href="#path0_fill" transform="translate(-6 -825)"/>
</g>
</g>
<defs>
<path id="path0_fill" fill-rule="evenodd" d="M 121.927 33.796C 117.594 23.1293 100.727 6.596 67.9273 25.796C 32.4212 46.5801 27.6635 90.613 25.727 108.535C 25.4274 111.308 25.1953 113.456 24.9273 114.796C 22.9273 124.796 33.9273 167.796 67.9273 165.796C 95.1273 164.196 101.594 153.463 101.427 148.296C 101.046 148.01 100.594 147.713 100.109 147.394L 100.108 147.393L 100.107 147.393C 98.0497 146.04 95.3906 144.293 94.9273 141.296C 94.3547 137.592 99.888 131.732 101.427 131.296C 106 130 114.659 131.915 118.427 134.796C 123.347 138.556 123.524 140.953 123.813 144.849L 123.813 144.85C 123.847 145.31 123.882 145.79 123.927 146.296C 124.355 151.092 120.427 180.796 67.9273 182.296C 25.9273 183.496 6.76067 151.129 2.42734 134.796C -2.23933 118.629 -3.37266 76.096 29.4273 35.296C 62.2273 -5.50398 101.761 -2.70399 117.427 3.79601C 121.927 4.79601 131.227 6.49602 132.427 5.29601C 133.627 4.096 125.927 23.796 121.927 33.796ZM 58.4273 131.296C 53.2607 130.463 43.5273 123.396 45.9273 101.796C 48.3273 80.196 63.594 62.796 70.9273 56.796C 78.4273 53.296 93.7273 48.996 94.9273 59.796L 97.9273 54.296L 113.427 54.296L 94.9273 109.796C 94.7607 115.629 98.2273 123.796 113.427 109.796L 143.427 18.296C 143.511 17.9621 143.637 17.5426 143.781 17.0667C 144.783 13.7414 146.614 7.66228 140.427 8.79601L 143.427 5.29601L 165.427 1.29601L 130.427 111.796C 129.427 116.796 131.427 123.396 147.427 109.796C 148.427 97.4627 154.527 69.896 170.927 58.296C 187.327 46.696 201.427 55.796 206.427 61.796C 211.594 72.4627 214.827 100.196 186.427 125.796C 178.094 130.796 159.327 136.496 150.927 119.296C 140.594 127.963 118.627 140.596 113.427 121.796C 102.927 128.963 81.5273 139.496 79.9273 124.296C 74.2607 127.796 62.0273 134.096 58.4273 131.296ZM 205.427 129.796L 225.927 69.296C 225.927 66.6294 225.327 61.196 222.927 60.796C 220.527 60.396 236.261 56.296 244.427 54.296L 241.427 69.296C 247.927 60.796 261.927 46.896 265.927 59.296L 265.927 60.796L 291.427 54.296L 274.927 106.796C 272.427 114.129 272.527 124.996 292.927 109.796C 292.427 94.796 299.727 62.696 332.927 54.296C 342.094 54.296 358.727 58.396 351.927 74.796C 345.127 91.196 329.761 95.6294 322.927 95.796C 319.094 96.296 311.327 97.396 310.927 97.796C 310.427 98.296 304.927 114.296 318.927 117.796C 322.427 117.296 331.127 113.696 337.927 103.296C 339.594 101.963 343.127 99.696 343.927 101.296C 344.137 101.715 344.434 102.024 344.737 102.339C 345.877 103.525 347.089 104.786 343.927 112.296C 339.927 121.796 321 132.796 311.927 131.296C 306.174 130.345 302.927 128.796 294.927 119.296C 287.761 124.296 272.127 133.696 266.927 131.296C 265.981 130.859 264.939 130.549 263.883 130.236L 263.883 130.236C 257.69 128.396 251.03 126.417 260.427 97.796C 267.523 76.1863 270.111 70.4625 270.76 70.1918C 269.659 66.447 267.203 62.0713 264.927 70.796C 262.527 79.996 255.594 78.9627 252.427 77.296C 249.761 75.4627 242.927 75.296 236.927 89.296C 230.927 103.296 225.094 122.129 222.927 129.796L 205.427 129.796ZM 304.427 151.296C 299.427 149.629 290.827 149.396 296.427 161.796C 302.027 174.196 319.761 167.963 327.927 163.296C 335.094 157.129 350.827 137.796 356.427 109.796L 388.427 12.296C 388.761 11.6293 388.427 9.19604 384.427 4.79601L 415.927 4.79601L 412.927 86.296L 465.927 4.79601L 498.927 4.79601C 496.427 5.12932 490.327 10.196 485.927 27.796C 481.527 45.396 460.094 110.129 449.927 140.296L 454.427 146.296L 420.927 146.296L 426.427 140.296C 427.927 139.463 431.627 134.996 434.427 123.796C 437.227 112.596 452.594 65.4627 459.927 43.296L 393.927 146.296L 395.927 43.296L 359.927 148.796C 355.594 159.296 338.827 180.696 306.427 182.296C 295.261 180.503 273.527 172.093 275.927 152.796C 278.327 133.499 289.594 131.422 294.927 132.796C 302.427 132.796 314.827 136.496 304.427 151.296ZM 288.427 39.796C 279.227 40.596 278.594 30.1293 279.427 24.796C 280.094 21.4627 283.727 14.596 292.927 13.796C 302.127 12.996 303.427 22.1293 302.927 26.796C 301.927 30.796 297.627 38.996 288.427 39.796ZM 509.427 123.796C 500.927 130.463 482.527 139.096 476.927 120.296C 473.963 110.343 476.487 93.5852 482.427 80.796C 490.513 63.3884 503.951 51.2019 509.427 53.796C 514.427 52.6294 524.527 52.496 524.927 61.296C 525.327 70.096 526.761 59.9627 527.427 53.796L 544.427 53.796L 527.427 109.796C 525.761 113.796 524.727 120.696 533.927 116.296C 545.123 110.941 549.685 95.6349 557.761 68.5308L 557.927 67.9754C 558.092 67.4205 558.259 66.8607 558.427 66.296L 558.427 64.796L 547.927 64.796C 546.927 64.796 545.627 63.996 548.427 60.796C 549.355 59.7356 549.615 59.6591 550.205 59.4859C 551.839 59.0057 556.002 57.7822 583.927 32.796L 578.927 53.796L 590.427 53.796L 587.927 64.796L 575.427 64.796L 562.427 106.796C 561.094 113.629 562.527 123.796 578.927 109.796C 580.427 97.9627 586.227 72.196 597.427 65.796C 602.427 60.796 615.027 50.996 633.427 53.796C 640.094 57.796 649.427 69.896 633.427 86.296C 626.927 90.796 610.927 99.496 598.927 98.296C 597.927 106.463 598.727 121.496 609.927 116.296C 613.927 115.796 622.827 112.496 626.427 103.296C 627.761 101.629 631.027 98.796 633.427 100.796C 635.827 102.796 636.427 105.629 636.427 106.796C 634.927 111.963 627.527 123.896 609.927 130.296C 592.327 136.696 585.261 124.963 583.927 118.296C 574.427 127.963 552.827 141.896 542.427 120.296C 533.427 128.296 514.227 140.196 509.427 123.796ZM 601.427 86.796C 603.094 81.9627 608.127 71.496 614.927 68.296C 621.416 65.2423 623.243 66.2683 624.412 66.9247C 624.774 67.1281 625.072 67.296 625.427 67.296C 626.927 67.296 627.927 71.296 625.427 75.296C 622.927 79.296 619.927 81.796 616.927 83.296C 613.927 84.796 605.927 87.796 601.427 86.796ZM 501.927 77.296C 505.127 68.496 512.594 66.6293 515.927 66.796C 519.018 69.5003 519.124 71.0106 519.242 72.7107C 519.277 73.211 519.314 73.7277 519.427 74.296C 519.827 76.296 517.261 87.796 515.927 93.296C 514.427 97.1293 511.127 105.296 509.927 107.296C 509.766 107.565 509.569 107.922 509.339 108.34C 507.429 111.806 503.173 119.527 496.927 117.296C 491.327 115.296 493.261 103.796 494.927 98.296C 495.927 94.9627 498.727 86.096 501.927 77.296ZM 86.0341 66.6469C 82.4582 65.5246 74.2447 68.8438 66.9273 90.796C 59.3273 113.596 65.094 117.963 68.9273 117.296C 73.2607 116.463 82.8273 109.596 86.4273 88.796C 90.2733 66.5748 86.0844 66.267 86.0341 66.6469ZM 323.927 71.296C 317.127 75.296 314.094 83.6293 313.427 87.296C 323.027 89.696 334.094 79.9627 338.427 74.796C 339.261 73.6293 340.327 70.796 337.927 68.796C 334.927 66.296 332.427 66.296 323.927 71.296ZM 169.927 90.296C 175.927 70.296 184.761 66.6293 188.427 67.296C 196.427 68.796 193.427 84.796 188.427 97.296C 183.427 109.796 172.927 119.796 169.927 117.296C 169.607 117.029 169.27 116.797 168.932 116.564C 166.104 114.612 163.228 112.628 169.927 90.296Z"/>
</defs>
</svg>
